<?xml version="1.0" ?><!DOCTYPE svg  PUBLIC '-//W3C//DTD SVG 1.1//EN'  'http://www.w3.org/Graphics/SVG/1.1/DTD/svg11.dtd'><svg height="100%" style="fill-rule:evenodd;clip-rule:evenodd;stroke-linejoin:round;stroke-miterlimit:1.41421;" version="1.1" viewBox="0 0 100 100" width="100%" xml:space="preserve" xmlns="http://www.w3.org/2000/svg" xmlns:xlink="http://www.w3.org/1999/xlink"><path d="M46.539,7.881c-0.127,0.091 -0.273,0.148 -0.345,0.254c-0.574,0.842 -0.988,1.759 -1.236,2.748c-0.009,0.038 0.035,0.126 0.06,0.129c0.086,0.009 0.205,0.024 0.258,-0.024c0.646,-0.572 1.357,-1.045 2.124,-1.437c0.036,-0.019 0.051,-0.077 0.076,-0.117c-0.021,-0.096 -0.015,-0.211 -0.067,-0.284c-0.289,-0.409 -0.477,-0.89 -0.87,-1.269M47.051,45.131c-0.31,-0.234 -0.691,-0.128 -1.03,-0.222c-0.344,-0.096 -0.693,-0.173 -1.043,-0.249c-1.805,-0.39 -3.546,-0.961 -5.196,-1.805c-2.722,-1.392 -4.823,-3.411 -6.226,-6.14c-0.14,-0.272 -0.283,-0.542 -0.426,-0.815c-1.113,-0.688 -2.334,-1.047 -3.596,-1.276c-0.658,-0.119 -1.324,-0.107 -1.986,-0.006c-0.1,0.016 -0.196,0.058 -0.295,0.083c-0.167,0.043 -0.339,0.208 -0.29,0.285c0.051,0.083 0.095,0.186 0.171,0.236c1.377,0.89 2.634,1.938 3.897,2.977c0.83,0.681 1.658,1.365 2.502,2.028c1.047,0.823 2.158,1.55 3.352,2.146c2.205,1.1 4.503,1.946 6.91,2.469c0.895,0.194 1.795,0.414 2.722,0.415c0.183,0 0.386,0.048 0.534,-0.126M57.588,30.342c-0.118,0.034 -0.25,0.032 -0.3,0.094c-0.223,0.277 -0.433,0.567 -0.629,0.864c-1.213,1.836 -2.251,3.772 -3.246,5.733c-0.485,0.957 -0.934,1.926 -1.282,2.946c-0.296,0.867 -0.603,1.737 -1.143,2.501c-0.4,0.568 -0.409,1.249 -0.455,1.912c-0.008,0.111 0.214,0.296 0.32,0.272c0.098,-0.022 0.205,-0.024 0.295,-0.064c1.5,-0.678 2.868,-1.559 4.108,-2.646c1.301,-1.14 2.006,-2.559 2.095,-4.283c0.036,-0.714 0.057,-1.43 0.07,-2.145c0.031,-1.584 0.012,-3.17 0.211,-4.747c0.018,-0.14 -0.028,-0.288 -0.044,-0.437M33.904,67.748c-0.144,0.215 -0.299,0.364 -0.354,0.544c-0.326,1.075 -0.564,2.174 -0.668,3.292c-0.146,1.574 -0.189,3.154 -0.133,4.738c0.057,1.634 0.265,3.252 0.482,4.869c0.142,1.06 0.335,2.114 0.537,3.165c0.202,1.052 0.488,2.083 0.903,3.075c0.298,0.71 0.666,1.376 1.166,1.965c0.766,0.902 1.719,1.226 2.876,0.958c0.39,-0.091 0.619,-0.326 0.636,-0.742c0.063,-1.532 0.007,-3.059 -0.206,-4.578c-0.268,-1.923 -0.74,-3.801 -1.239,-5.673c-0.566,-2.122 -1.328,-4.176 -2.132,-6.216c-0.635,-1.613 -1.243,-3.235 -1.665,-4.92c-0.036,-0.139 -0.113,-0.268 -0.203,-0.477M54.991,44.207c0.094,0.024 0.196,0.087 0.278,0.066c1.641,-0.408 3.229,-0.961 4.746,-1.716c2.8,-1.392 4.885,-3.487 6.258,-6.3c0.631,-1.292 1.105,-2.64 1.483,-4.021c0.607,-2.223 0.956,-4.497 1.259,-6.778c0.013,-0.098 -0.007,-0.202 -0.022,-0.301c-0.007,-0.047 -0.036,-0.125 -0.061,-0.127c-0.098,-0.011 -0.205,-0.016 -0.295,0.015c-0.093,0.031 -0.176,0.1 -0.255,0.163c-1.996,1.608 -3.846,3.369 -5.499,5.33c-0.991,1.176 -1.868,2.431 -2.595,3.79c-0.489,0.914 -0.879,1.846 -0.747,2.916c0.012,0.101 0,0.205 -0.005,0.307c-0.099,1.928 -0.814,3.577 -2.275,4.86c-0.536,0.47 -1.134,0.869 -1.711,1.291c-0.205,0.15 -0.44,0.261 -0.559,0.505M63.376,27.418c-0.023,-1.874 -0.517,-3.581 -1.212,-5.234c-1.639,-3.897 -3.938,-7.366 -6.827,-10.447c-0.103,-0.11 -0.227,-0.211 -0.36,-0.273c-0.068,-0.032 -0.18,0.03 -0.282,0.052c-0.101,0.557 -0.019,1.117 0.024,1.673c0.26,3.362 0.26,6.729 0.188,10.096c-0.046,2.193 -0.215,4.381 -0.491,6.559c-0.051,0.402 -0.053,0.81 -0.072,1.216c-0.002,0.044 0.03,0.128 0.051,0.129c0.093,0.008 0.223,0.029 0.276,-0.022c0.221,-0.21 0.415,-0.447 0.624,-0.669c0.77,-0.816 1.538,-1.633 2.317,-2.441c0.175,-0.182 0.381,-0.336 0.584,-0.488c0.311,-0.233 0.795,-0.039 0.816,0.331c0.021,0.354 0.02,0.711 0.016,1.067c-0.016,1.277 0.083,2.546 0.256,3.81c0.004,0.032 0.058,0.071 0.095,0.081c0.045,0.013 0.112,0.017 0.142,-0.009c0.077,-0.064 0.158,-0.137 0.206,-0.223c0.939,-1.705 2.086,-3.264 3.337,-4.75c0.129,-0.153 0.227,-0.332 0.312,-0.458M44.659,90.628c0.171,0.047 0.316,0.114 0.464,0.123c0.458,0.028 0.919,0.057 1.378,0.045c1.54,-0.038 3.047,-0.297 4.532,-0.704c2.279,-0.626 4.453,-1.49 6.467,-2.742c1.281,-0.796 2.352,-1.806 3.174,-3.063c0.474,-0.726 0.928,-1.475 1.294,-2.258c0.475,-1.016 0.877,-2.068 1.27,-3.12c0.57,-1.532 1.087,-3.083 1.658,-4.614c1,-2.68 2.023,-5.351 3.036,-8.026c0.036,-0.096 0.094,-0.187 0.107,-0.285c0.013,-0.094 -0.018,-0.194 -0.029,-0.291c-0.08,0.017 -0.19,0.006 -0.235,0.055c-0.419,0.447 -0.84,0.893 -1.235,1.361c-1.121,1.327 -2.22,2.675 -3.347,3.997c-1.597,1.872 -3.318,3.619 -5.307,5.079c-0.947,0.694 -1.93,1.341 -2.918,1.976c-1.206,0.774 -2.402,1.558 -3.496,2.486c-1.094,0.927 -2.145,1.903 -3.003,3.057c-1.5,2.017 -2.709,4.208 -3.775,6.48c-0.058,0.123 -0.025,0.29 -0.035,0.444M34.275,27.867c-0.036,2.397 0.106,4.016 0.442,5.438c0.644,2.724 1.984,5.023 4.19,6.784c0.722,0.577 1.498,1.069 2.316,1.495c1.97,1.025 4.07,1.642 6.252,2.006c0.429,0.071 0.648,-0.122 0.682,-0.601c0.017,-0.255 0.02,-0.511 0.032,-0.766c0.061,-1.186 -0.337,-2.208 -1.114,-3.092c-0.304,-0.345 -0.616,-0.684 -0.93,-1.02c-1.346,-1.439 -2.346,-3.088 -3.028,-4.934c-0.444,-1.202 -0.79,-2.431 -1.04,-3.685c-0.582,-2.91 -0.948,-5.852 -1.261,-8.801c-0.232,-2.187 -0.518,-4.367 -0.952,-6.523c-0.151,-0.749 -0.387,-1.482 -0.594,-2.219c-0.022,-0.078 -0.115,-0.18 -0.185,-0.188c-0.084,-0.011 -0.215,0.042 -0.263,0.11c-0.145,0.208 -0.272,0.431 -0.383,0.659c-1.159,2.399 -2.096,4.883 -2.827,7.444c-0.803,2.814 -1.324,5.673 -1.337,7.893M49.582,39.629c0.448,-0.796 0.747,-1.612 1.043,-2.427c1.299,-3.575 2.019,-7.281 2.457,-11.048c0.255,-2.185 0.393,-4.379 0.405,-6.58c0.008,-1.329 -0.004,-2.658 -0.025,-3.987c-0.004,-0.248 -0.035,-0.529 -0.155,-0.736c-0.358,-0.617 -0.726,-1.233 -1.219,-1.761c-0.723,-0.776 -1.592,-1.26 -2.645,-1.431c-0.704,-0.114 -1.333,0.024 -1.855,0.5c-0.413,0.377 -0.809,0.783 -1.159,1.218c-1.163,1.447 -2.015,3.076 -2.705,4.79c-0.693,1.719 -0.693,1.871 -0.312,3.705c0.353,1.702 0.658,3.411 0.846,5.141c0.144,1.321 0.331,2.638 0.566,3.945c0.413,2.302 1.292,4.407 2.807,6.218c0.197,0.235 0.397,0.47 0.567,0.724c0.341,0.509 0.652,1.038 0.998,1.543c0.067,0.097 0.242,0.121 0.386,0.186M52.122,46.281c-0.243,0.369 -0.186,0.735 -0.191,1.089c-0.022,1.585 -0.027,3.17 -0.058,4.755c-0.052,2.609 -0.275,5.207 -0.522,7.804c-0.234,2.444 -0.563,4.873 -0.966,7.295c-0.918,5.511 -2.259,10.906 -4.344,16.102c-0.076,0.189 -0.138,0.384 -0.196,0.579c-0.011,0.04 0.021,0.133 0.04,0.135c0.077,0.008 0.19,0.022 0.232,-0.021c0.607,-0.621 1.232,-1.227 1.799,-1.883c1.852,-2.143 3.951,-4 6.311,-5.562c1.241,-0.82 2.385,-1.76 3.51,-2.728c2.211,-1.904 4.337,-3.896 6.351,-6.008c1.447,-1.517 2.92,-3.01 4.497,-4.396c0.306,-0.269 0.63,-0.518 0.96,-0.757c0.121,-0.087 0.282,-0.103 0.427,-0.004c0.171,0.117 0.244,0.338 0.171,0.537c-0.018,0.048 -0.036,0.096 -0.057,0.142c-0.945,2.057 -1.488,4.238 -1.971,6.436c-0.492,2.247 -0.969,4.496 -1.485,6.737c-0.638,2.768 -1.804,5.319 -3.332,7.702c-1.429,2.23 -3.303,4.026 -5.524,5.458c-1.334,0.861 -2.744,1.584 -4.203,2.211c-0.326,0.14 -0.648,0.291 -0.968,0.444c-0.039,0.019 -0.086,0.097 -0.074,0.126c0.033,0.085 0.087,0.165 0.149,0.234c0.029,0.033 0.092,0.045 0.141,0.049c1.427,0.12 2.852,0.28 4.281,0.347c3.019,0.141 6.036,0.032 9.036,-0.323c5.404,-0.638 10.666,-1.87 15.724,-3.913c0.324,-0.131 0.63,-0.37 1.013,-0.29c0.084,0.018 0.191,0.093 0.219,0.167c0.03,0.079 0.013,0.223 -0.043,0.28c-0.14,0.141 -0.297,0.288 -0.476,0.367c-1.216,0.534 -2.424,1.093 -3.665,1.565c-3.784,1.439 -7.677,2.474 -11.669,3.167c-4.251,0.738 -8.528,1.007 -12.833,0.817c-1.531,-0.067 -3.06,-0.218 -4.585,-0.381c-2.388,-0.256 -4.773,-0.555 -7.158,-0.836c-1.321,-0.156 -2.637,-0.346 -3.961,-0.461c-1.884,-0.165 -3.771,-0.33 -5.66,-0.394c-1.993,-0.067 -3.99,-0.063 -5.983,-0.004c-2.97,0.087 -5.913,0.429 -8.796,1.186c-0.344,0.09 -0.694,0.158 -1.043,0.232c-0.124,0.026 -0.322,-0.123 -0.326,-0.255c-0.003,-0.094 -0.003,-0.228 0.054,-0.277c0.23,-0.198 0.467,-0.397 0.729,-0.546c2.106,-1.194 4.351,-2.025 6.722,-2.511c2.06,-0.423 4.139,-0.655 6.245,-0.617c0.563,0.01 1.127,0.044 1.687,0.017c0.38,-0.018 0.886,0.243 1.109,-0.18c0.18,-0.341 -0.251,-0.624 -0.427,-0.918c-1.309,-2.186 -2.061,-4.558 -2.335,-7.079c-0.409,-3.764 0.11,-7.446 1.076,-11.079c0.46,-1.732 1.068,-3.414 1.815,-5.043c0.126,-0.275 0.248,-0.561 0.51,-0.753c0.128,-0.093 0.493,-0.023 0.535,0.125c0.055,0.194 0.126,0.387 0.149,0.586c0.177,1.544 0.676,2.986 1.361,4.37c0.499,1.008 1.022,2.004 1.516,3.014c0.629,1.285 1.276,2.563 1.853,3.872c1.192,2.706 1.751,5.546 1.666,8.508c-0.016,0.56 0.001,1.121 0.009,1.682c0,0.026 0.059,0.065 0.097,0.075c0.044,0.013 0.125,0.018 0.138,-0.003c0.127,-0.22 0.264,-0.437 0.361,-0.67c1.243,-2.977 2.225,-6.041 3.036,-9.161c0.979,-3.763 1.708,-7.575 2.226,-11.43c0.423,-3.143 0.721,-6.296 0.944,-9.46c0.192,-2.706 0.238,-5.415 0.289,-8.124c0.008,-0.458 -0.034,-0.917 -0.076,-1.374c-0.007,-0.078 -0.126,-0.197 -0.205,-0.208c-0.303,-0.042 -0.61,-0.06 -0.916,-0.064c-3.679,-0.042 -7.195,-0.839 -10.576,-2.272c-1.466,-0.621 -2.852,-1.39 -4.104,-2.374c-1.165,-0.916 -2.288,-1.885 -3.427,-2.835c-0.707,-0.589 -1.398,-1.197 -2.114,-1.776c-0.356,-0.288 -0.742,-0.543 -1.131,-0.787c-0.438,-0.276 -0.911,-0.46 -1.446,-0.436c-0.151,0.007 -0.309,-0.006 -0.455,-0.043c-0.317,-0.082 -0.533,-0.292 -0.657,-0.591c-0.132,-0.319 -0.043,-0.61 0.168,-0.852c0.166,-0.19 0.359,-0.365 0.567,-0.51c1.73,-1.206 3.635,-1.545 5.695,-1.152c0.857,0.164 1.66,0.497 2.491,0.743c0.111,0.033 0.347,-0.138 0.331,-0.24c-0.085,-0.555 -0.158,-1.113 -0.26,-1.666c-0.274,-1.472 -0.264,-2.956 -0.13,-4.434c0.144,-1.578 0.409,-3.14 0.803,-4.68c1.113,-4.346 2.9,-8.397 5.277,-12.193c0.19,-0.302 0.401,-0.593 0.621,-0.874c0.227,-0.29 0.721,-0.253 0.923,0.072c0.215,0.346 0.416,0.703 0.602,1.066c0.628,1.234 1.068,2.542 1.481,3.86c0.123,0.39 0.231,0.785 0.361,1.173c0.023,0.067 0.142,0.164 0.185,0.15c0.087,-0.028 0.18,-0.109 0.223,-0.193c0.304,-0.599 0.499,-1.223 0.48,-1.909c-0.03,-1.08 0.162,-2.141 0.338,-3.199c0.176,-1.062 0.475,-2.095 0.934,-3.072c0.442,-0.941 1.037,-1.762 1.927,-2.335c0.347,-0.224 0.715,-0.386 1.138,-0.418c0.492,-0.038 0.929,0.317 0.94,0.793c0.003,0.101 0.015,0.207 -0.005,0.305c-0.208,0.988 0.186,1.802 0.738,2.569c0.15,0.207 0.306,0.413 0.484,0.594c0.141,0.143 0.302,0.309 0.485,0.361c1.116,0.319 2.003,0.996 2.848,1.751c0.048,0.043 0.185,-0.002 0.275,-0.026c0.027,-0.007 0.052,-0.085 0.051,-0.129c-0.009,-0.408 -0.023,-0.815 -0.038,-1.222c-0.011,-0.307 -0.041,-0.613 -0.036,-0.918c0.009,-0.493 0.596,-0.795 1.017,-0.53c0.173,0.109 0.344,0.223 0.497,0.357c4.041,3.551 7.342,7.677 9.71,12.525c0.494,1.012 0.9,2.059 1.246,3.13c0.088,0.273 0.368,0.325 0.595,0.121c0.305,-0.272 0.599,-0.558 0.909,-0.823c0.74,-0.631 1.479,-1.261 2.234,-1.873c0.235,-0.19 0.508,-0.341 0.783,-0.471c0.441,-0.209 1.111,0.158 1.197,0.643c0.035,0.2 0.069,0.406 0.062,0.607c-0.128,3.64 -0.541,7.237 -1.619,10.735c-0.392,1.273 -0.891,2.501 -1.507,3.684c-1.647,3.157 -4.098,5.448 -7.364,6.869c-1.601,0.697 -3.264,1.191 -4.974,1.525c-1.053,0.205 -2.115,0.368 -3.171,0.557c-0.197,0.035 -0.387,0.103 -0.542,0.144" style="fill:#1e1c1a;fill-rule:nonzero;"/></svg>